{
  "accessors": [
    {
      "bufferView": 1,
      "componentType": 5126,
      "count": 3996,
      "max": [
        0.965499997138977,
        0.34950000047683716,
        0.3747289180755615
      ],
      "min": [
        -0.965499997138977,
        -0.34950000047683716,
        -0.3747289180755615
      ],
      "type": "VEC3"
    },
    {
      "bufferView": 1,
      "byteOffset": 47952,
      "componentType": 5126,
      "count": 3996,
      "max": [
        1.0,
        1.0,
        1.0
      ],
      "min": [
        -1.0,
        -1.0,
        -1.0
      ],
      "type": "VEC3"
    },
    {
      "bufferView": 0,
      "componentType": 5125,
      "count": 23472,
      "type": "SCALAR"
    }
  ],
  "asset": {
    "extras": {
      "author": "S.Duce (https://sketchfab.com/sduce)",
      "license": "CC-BY-4.0 (http://creativecommons.org/licenses/by/4.0/)",
      "source": "https://sketchfab.com/3d-models/oxygen-molecule-e446304b629c4ccbbeac2bad3f0e2ecf",
      "title": "Oxygen Molecule"
    },
    "generator": "Sketchfab-13.58.0",
    "version": "2.0"
  },
  "bufferViews": [
    {
      "buffer": 0,
      "byteLength": 93888,
      "name": "floatBufferViews",
      "target": 34963
    },
    {
      "buffer": 0,
      "byteLength": 95904,
      "byteOffset": 93888,
      "byteStride": 12,
      "name": "floatBufferViews",
      "target": 34962
    }
  ],
  "buffers": [
    {
      "byteLength": 189792,
      "uri": "scene.bin"
    }
  ],
  "extensionsRequired": [
    "KHR_materials_pbrSpecularGlossiness"
  ],
  "extensionsUsed": [
    "KHR_materials_pbrSpecularGlossiness"
  ],
  "materials": [
    {
      "doubleSided": true,
      "extensions": {
        "KHR_materials_pbrSpecularGlossiness": {
          "diffuseFactor": [
            1.0,
            0.05499999999999986,
            0.05499999999999986,
            1.0
          ],
          "glossinessFactor": 1.0,
          "specularFactor": [
            0.0,
            0.0,
            0.0
          ]
        }
      },
      "name": "kff0d0d"
    }
  ],
  "meshes": [
    {
      "name": "Object_0",
      "primitives": [
        {
          "attributes": {
            "NORMAL": 1,
            "POSITION": 0
          },
          "indices": 2,
          "material": 0,
          "mode": 4
        }
      ]
    }
  ],
  "nodes": [
    {
      "children": [
        1
      ],
      "matrix": [
        0.9999767541885376,
        0.006004321388900281,
        -0.003239066572859882,
        0.0,
        -0.001773453550413251,
        -0.22967761754989602,
        -0.9732651710510254,
        0.0,
        -0.006587738171219826,
        0.9732482433319092,
        -0.22966162860393502,
        0.0,
        0.0,
        0.0,
        0.0,
        1.0
      ],
      "name": "Sketchfab_model"
    },
    {
      "children": [
        2
      ],
      "name": "oxygen.obj.cleaner.materialmerger.gles"
    },
    {
      "mesh": 0,
      "name": "Object_2"
    }
  ],
  "scene": 0,
  "scenes": [
    {
      "name": "Sketchfab_Scene",
      "nodes": [
        0
      ]
    }
  ]
}
