{
  "accessors": [
    {
      "bufferView": 1,
      "componentType": 5126,
      "count": 7941,
      "max": [
        5.275000095367432,
        30.0,
        46.0
      ],
      "min": [
        -45.275001525878906,
        9.0,
        3.702782929582019e-15
      ],
      "type": "VEC3"
    },
    {
      "bufferView": 1,
      "byteOffset": 95292,
      "componentType": 5126,
      "count": 7941,
      "max": [
        1.0,
        1.0,
        1.0
      ],
      "min": [
        -1.0,
        -1.0,
        -1.0
      ],
      "type": "VEC3"
    },
    {
      "bufferView": 0,
      "componentType": 5125,
      "count": 30450,
      "type": "SCALAR"
    }
  ],
  "asset": {
    "extras": {
      "author": "Unboxig_Gamer (https://sketchfab.com/Unboxig_Gamer)",
      "license": "CC-BY-4.0 (http://creativecommons.org/licenses/by/4.0/)",
      "source": "https://sketchfab.com/3d-models/hydrogen-gas-9867a2f3e3584058bb8a09c71825c7ec",
      "title": "Hydrogen Gas"
    },
    "generator": "Sketchfab-12.68.0",
    "version": "2.0"
  },
  "bufferViews": [
    {
      "buffer": 0,
      "byteLength": 121800,
      "name": "floatBufferViews",
      "target": 34963
    },
    {
      "buffer": 0,
      "byteLength": 190584,
      "byteOffset": 121800,
      "byteStride": 12,
      "name": "floatBufferViews",
      "target": 34962
    }
  ],
  "buffers": [
    {
      "byteLength": 312384,
      "uri": "scene.bin"
    }
  ],
  "materials": [
    {
      "doubleSided": true,
      "name": "Scene_-_Root",
      "pbrMetallicRoughness": {
        "metallicFactor": 0.0,
        "roughnessFactor": 0.6
      }
    }
  ],
  "meshes": [
    {
      "name": "Object_0",
      "primitives": [
        {
          "attributes": {
            "NORMAL": 1,
            "POSITION": 0
          },
          "indices": 2,
          "material": 0,
          "mode": 4
        }
      ]
    }
  ],
  "nodes": [
    {
      "children": [
        1
      ],
      "matrix": [
        0.02500000037252903,
        0.0,
        0.0,
        0.0,
        0.0,
        5.551115205843844e-18,
        -0.02500000037252903,
        0.0,
        0.0,
        0.02500000037252903,
        5.551115205843844e-18,
        0.0,
        0.0,
        0.0,
        0.0,
        1.0
      ],
      "name": "Sketchfab_model"
    },
    {
      "children": [
        2
      ],
      "name": "35c52fd3bf584605b5562ad00830aa8c.stl.cleaner.materialmerger.gles"
    },
    {
      "mesh": 0,
      "name": "Object_2"
    }
  ],
  "scene": 0,
  "scenes": [
    {
      "name": "Sketchfab_Scene",
      "nodes": [
        0
      ]
    }
  ]
}
